<svg width="154" height="40" viewBox="0 0 154 40" fill="none" xmlns="http://www.w3.org/2000/svg">
<rect width="40" height="40" rx="20" fill="#0E1422"/>
<path d="M24.4768 11.3485L18.2039 7.55509C17.6118 7.19292 16.9387 7.0015 16.2531 7.00031C14.2093 7.00031 12.3346 8.71225 12.3346 11.105V25.3073L24.4768 17.9669C26.9081 16.4947 26.9081 12.82 24.4768 11.3485ZM15.8483 18.448V10.8679L22.1162 14.6567L15.8483 18.448Z" fill="white"/>
<path d="M27.8488 32.9844C27.8488 33.0273 15.9907 32.966 15.9907 32.966L14.9432 32.8425C13.2466 32.644 11.9441 31.1233 12.0018 29.3346C12.0018 29.2917 12.0055 29.2519 12.008 29.2103C12.0546 28.4365 12.326 27.6961 12.7857 27.0885C12.9724 26.8461 13.2008 26.6425 13.459 26.4882L22.478 21.0725C24.3413 19.9535 25.893 19.562 26.6998 17.5341C26.9973 16.7757 27.1258 15.9562 27.0756 15.1379L27.0444 14.5865L27.965 19.9204C28.0829 20.8264 27.9012 21.7537 27.421 22.5169C27.1325 22.9785 26.7474 23.3653 26.295 23.6479L15.8294 28.8943C15.819 28.9006 15.8088 28.9074 15.7991 28.9149C15.5126 29.1293 15.6894 29.6069 16.0402 29.5867L24.7514 29.6403C26.4431 29.5417 27.8524 31.2112 27.8488 32.9844Z" fill="white"/>
<path d="M53.4 27.5V13.1H55.84L60.6 22.66L65.36 13.1H67.8V27.5H65.26V18.9L61.08 27.5H60.12L55.94 18.9V27.5H53.4ZM75.347 27.8C74.2804 27.8 73.317 27.6133 72.457 27.24C71.6037 26.86 70.9004 26.32 70.347 25.62C69.8004 24.9133 69.4537 24.0733 69.307 23.1L72.147 22.68C72.347 23.5067 72.7604 24.1433 73.387 24.59C74.0137 25.0367 74.727 25.26 75.527 25.26C75.9737 25.26 76.407 25.19 76.827 25.05C77.247 24.91 77.5904 24.7033 77.857 24.43C78.1304 24.1567 78.267 23.82 78.267 23.42C78.267 23.2733 78.2437 23.1333 78.197 23C78.157 22.86 78.087 22.73 77.987 22.61C77.887 22.49 77.7437 22.3767 77.557 22.27C77.377 22.1633 77.147 22.0667 76.867 21.98L73.127 20.88C72.847 20.8 72.5204 20.6867 72.147 20.54C71.7804 20.3933 71.4237 20.1833 71.077 19.91C70.7304 19.6367 70.4404 19.2767 70.207 18.83C69.9804 18.3767 69.867 17.8067 69.867 17.12C69.867 16.1533 70.1104 15.35 70.597 14.71C71.0837 14.07 71.7337 13.5933 72.547 13.28C73.3604 12.9667 74.2604 12.8133 75.247 12.82C76.2404 12.8333 77.127 13.0033 77.907 13.33C78.687 13.6567 79.3404 14.1333 79.867 14.76C80.3937 15.38 80.7737 16.14 81.007 17.04L78.067 17.54C77.9604 17.0733 77.7637 16.68 77.477 16.36C77.1904 16.04 76.847 15.7967 76.447 15.63C76.0537 15.4633 75.6404 15.3733 75.207 15.36C74.7804 15.3467 74.377 15.4067 73.997 15.54C73.6237 15.6667 73.317 15.8533 73.077 16.1C72.8437 16.3467 72.727 16.64 72.727 16.98C72.727 17.2933 72.8237 17.55 73.017 17.75C73.2104 17.9433 73.4537 18.1 73.747 18.22C74.0404 18.34 74.3404 18.44 74.647 18.52L77.147 19.2C77.5204 19.3 77.9337 19.4333 78.387 19.6C78.8404 19.76 79.2737 19.9867 79.687 20.28C80.107 20.5667 80.4504 20.9467 80.717 21.42C80.9904 21.8933 81.127 22.4933 81.127 23.22C81.127 23.9933 80.9637 24.67 80.637 25.25C80.317 25.8233 79.8837 26.3 79.337 26.68C78.7904 27.0533 78.1704 27.3333 77.477 27.52C76.7904 27.7067 76.0804 27.8 75.347 27.8ZM88.805 27.8C87.365 27.8 86.1217 27.4867 85.075 26.86C84.035 26.2333 83.2317 25.3567 82.665 24.23C82.105 23.1033 81.825 21.7933 81.825 20.3C81.825 18.8067 82.105 17.4967 82.665 16.37C83.2317 15.2433 84.035 14.3667 85.075 13.74C86.1217 13.1133 87.365 12.8 88.805 12.8C90.4583 12.8 91.845 13.21 92.965 14.03C94.0917 14.85 94.885 15.96 95.345 17.36L92.605 18.12C92.3383 17.2467 91.8883 16.57 91.255 16.09C90.6217 15.6033 89.805 15.36 88.805 15.36C87.8917 15.36 87.1283 15.5633 86.515 15.97C85.9083 16.3767 85.4517 16.95 85.145 17.69C84.8383 18.43 84.685 19.3 84.685 20.3C84.685 21.3 84.8383 22.17 85.145 22.91C85.4517 23.65 85.9083 24.2233 86.515 24.63C87.1283 25.0367 87.8917 25.24 88.805 25.24C89.805 25.24 90.6217 24.9967 91.255 24.51C91.8883 24.0233 92.3383 23.3467 92.605 22.48L95.345 23.24C94.885 24.64 94.0917 25.75 92.965 26.57C91.845 27.39 90.4583 27.8 88.805 27.8ZM104.207 27.5V22.4C104.207 22.1533 104.194 21.84 104.167 21.46C104.14 21.0733 104.057 20.6867 103.917 20.3C103.777 19.9133 103.547 19.59 103.227 19.33C102.914 19.07 102.467 18.94 101.887 18.94C101.654 18.94 101.404 18.9767 101.137 19.05C100.87 19.1233 100.62 19.2667 100.387 19.48C100.154 19.6867 99.9602 19.9933 99.8069 20.4C99.6602 20.8067 99.5869 21.3467 99.5869 22.02L98.0269 21.28C98.0269 20.4267 98.2002 19.6267 98.5469 18.88C98.8935 18.1333 99.4135 17.53 100.107 17.07C100.807 16.61 101.687 16.38 102.747 16.38C103.594 16.38 104.284 16.5233 104.817 16.81C105.35 17.0967 105.764 17.46 106.057 17.9C106.357 18.34 106.57 18.8 106.697 19.28C106.824 19.7533 106.9 20.1867 106.927 20.58C106.954 20.9733 106.967 21.26 106.967 21.44V27.5H104.207ZM96.8269 27.5V13.1H99.2469V20.5H99.5869V27.5H96.8269ZM113.722 27.8C112.635 27.8 111.682 27.5567 110.862 27.07C110.042 26.5833 109.402 25.9133 108.942 25.06C108.488 24.2 108.262 23.2133 108.262 22.1C108.262 20.9733 108.495 19.9833 108.962 19.13C109.428 18.27 110.072 17.6 110.892 17.12C111.712 16.64 112.655 16.4 113.722 16.4C114.808 16.4 115.762 16.6433 116.582 17.13C117.408 17.6167 118.052 18.29 118.512 19.15C118.972 20.0033 119.202 20.9867 119.202 22.1C119.202 23.22 118.968 24.21 118.502 25.07C118.042 25.9233 117.398 26.5933 116.572 27.08C115.752 27.56 114.802 27.8 113.722 27.8ZM113.722 25.26C114.595 25.26 115.245 24.9667 115.672 24.38C116.105 23.7867 116.322 23.0267 116.322 22.1C116.322 21.14 116.102 20.3733 115.662 19.8C115.228 19.2267 114.582 18.94 113.722 18.94C113.128 18.94 112.642 19.0733 112.262 19.34C111.882 19.6067 111.598 19.9767 111.412 20.45C111.232 20.9233 111.142 21.4733 111.142 22.1C111.142 23.0667 111.358 23.8367 111.792 24.41C112.232 24.9767 112.875 25.26 113.722 25.26ZM125.561 27.8C124.474 27.8 123.521 27.5567 122.701 27.07C121.881 26.5833 121.241 25.9133 120.781 25.06C120.327 24.2 120.101 23.2133 120.101 22.1C120.101 20.9733 120.334 19.9833 120.801 19.13C121.267 18.27 121.911 17.6 122.731 17.12C123.551 16.64 124.494 16.4 125.561 16.4C126.647 16.4 127.601 16.6433 128.421 17.13C129.247 17.6167 129.891 18.29 130.351 19.15C130.811 20.0033 131.041 20.9867 131.041 22.1C131.041 23.22 130.807 24.21 130.341 25.07C129.881 25.9233 129.237 26.5933 128.411 27.08C127.591 27.56 126.641 27.8 125.561 27.8ZM125.561 25.26C126.434 25.26 127.084 24.9667 127.511 24.38C127.944 23.7867 128.161 23.0267 128.161 22.1C128.161 21.14 127.941 20.3733 127.501 19.8C127.067 19.2267 126.421 18.94 125.561 18.94C124.967 18.94 124.481 19.0733 124.101 19.34C123.721 19.6067 123.437 19.9767 123.251 20.45C123.071 20.9233 122.981 21.4733 122.981 22.1C122.981 23.0667 123.197 23.8367 123.631 24.41C124.071 24.9767 124.714 25.26 125.561 25.26ZM136.467 27.8C135.107 27.8 134.007 27.4933 133.167 26.88C132.334 26.26 131.827 25.3867 131.647 24.26L134.427 23.84C134.54 24.3467 134.79 24.7433 135.177 25.03C135.57 25.3167 136.067 25.46 136.667 25.46C137.16 25.46 137.54 25.3667 137.807 25.18C138.074 24.9867 138.207 24.72 138.207 24.38C138.207 24.1667 138.154 23.9967 138.047 23.87C137.94 23.7367 137.7 23.6067 137.327 23.48C136.96 23.3533 136.387 23.1867 135.607 22.98C134.727 22.7533 134.024 22.5 133.497 22.22C132.97 21.94 132.59 21.6067 132.357 21.22C132.124 20.8267 132.007 20.3533 132.007 19.8C132.007 19.1067 132.184 18.5067 132.537 18C132.89 17.4867 133.387 17.0933 134.027 16.82C134.674 16.54 135.434 16.4 136.307 16.4C137.154 16.4 137.904 16.53 138.557 16.79C139.21 17.05 139.737 17.42 140.137 17.9C140.544 18.38 140.794 18.9467 140.887 19.6L138.107 20.1C138.06 19.7 137.887 19.3833 137.587 19.15C137.287 18.9167 136.88 18.78 136.367 18.74C135.867 18.7067 135.464 18.7733 135.157 18.94C134.857 19.1067 134.707 19.3467 134.707 19.66C134.707 19.8467 134.77 20.0033 134.897 20.13C135.03 20.2567 135.3 20.3867 135.707 20.52C136.12 20.6533 136.747 20.8267 137.587 21.04C138.407 21.2533 139.064 21.5033 139.557 21.79C140.057 22.07 140.42 22.41 140.647 22.81C140.874 23.2033 140.987 23.68 140.987 24.24C140.987 25.3467 140.587 26.2167 139.787 26.85C138.987 27.4833 137.88 27.8 136.467 27.8ZM147.504 27.8C146.398 27.8 145.421 27.5633 144.574 27.09C143.734 26.61 143.074 25.9533 142.594 25.12C142.121 24.28 141.884 23.32 141.884 22.24C141.884 21.06 142.118 20.0333 142.584 19.16C143.051 18.2867 143.694 17.61 144.514 17.13C145.334 16.6433 146.278 16.4 147.344 16.4C148.478 16.4 149.441 16.6667 150.234 17.2C151.028 17.7333 151.614 18.4833 151.994 19.45C152.374 20.4167 152.508 21.5533 152.394 22.86H149.704V21.86C149.704 20.76 149.528 19.97 149.174 19.49C148.828 19.0033 148.258 18.76 147.464 18.76C146.538 18.76 145.854 19.0433 145.414 19.61C144.981 20.17 144.764 21 144.764 22.1C144.764 23.1067 144.981 23.8867 145.414 24.44C145.854 24.9867 146.498 25.26 147.344 25.26C147.878 25.26 148.334 25.1433 148.714 24.91C149.094 24.6767 149.384 24.34 149.584 23.9L152.304 24.68C151.898 25.6667 151.254 26.4333 150.374 26.98C149.501 27.5267 148.544 27.8 147.504 27.8ZM143.924 22.86V20.84H151.084V22.86H143.924Z" fill="#0E1422"/>
</svg>
