<svg width="116" height="40" viewBox="0 0 116 40" fill="none" xmlns="http://www.w3.org/2000/svg">
<g clip-path="url(#clip0_1305_793)">
<path d="M20.4768 11.3485L14.2039 7.55509C13.6118 7.19292 12.9387 7.0015 12.2531 7.00031C10.2093 7.00031 8.33463 8.71225 8.33463 11.105V25.3073L20.4768 17.9669C22.9081 16.4947 22.9081 12.82 20.4768 11.3485ZM11.8483 18.448V10.8679L18.1162 14.6567L11.8483 18.448Z" fill="#0E1422"/>
<path d="M23.8488 32.9844C23.8488 33.0273 11.9907 32.966 11.9907 32.966L10.9432 32.8425C9.2466 32.644 7.94413 31.1233 8.00185 29.3346C8.00185 29.2917 8.00553 29.2519 8.00799 29.2103C8.05459 28.4365 8.32595 27.6961 8.7857 27.0885C8.9724 26.8461 9.20079 26.6425 9.45903 26.4882L18.478 21.0725C20.3413 19.9535 21.893 19.562 22.6998 17.5341C22.9973 16.7757 23.1258 15.9562 23.0756 15.1379L23.0444 14.5865L23.965 19.9204C24.0829 20.8264 23.9012 21.7537 23.421 22.5169C23.1325 22.9785 22.7474 23.3653 22.295 23.6479L11.8294 28.8943C11.819 28.9006 11.8088 28.9074 11.7991 28.9149C11.5126 29.1293 11.6894 29.6069 12.0402 29.5867L20.7514 29.6403C22.4431 29.5417 23.8524 31.2112 23.8488 32.9844Z" fill="#0E1422"/>
</g>
<path d="M36.4 28L40.8 13.6H44.86L49.26 28H46.46L42.54 15.3H43.06L39.2 28H36.4ZM39.04 25V22.46H46.64V25H39.04ZM54.4323 28.3C53.439 28.3 52.569 28.05 51.8223 27.55C51.0757 27.05 50.4923 26.37 50.0723 25.51C49.659 24.65 49.4523 23.68 49.4523 22.6C49.4523 21.5 49.6623 20.5233 50.0823 19.67C50.509 18.81 51.1057 18.1333 51.8723 17.64C52.639 17.1467 53.539 16.9 54.5723 16.9C55.599 16.9 56.4623 17.15 57.1623 17.65C57.8623 18.15 58.3923 18.83 58.7523 19.69C59.1123 20.55 59.2923 21.52 59.2923 22.6C59.2923 23.68 59.109 24.65 58.7423 25.51C58.3823 26.37 57.8423 27.05 57.1223 27.55C56.4023 28.05 55.5057 28.3 54.4323 28.3ZM54.8723 25.88C55.479 25.88 55.9623 25.7433 56.3223 25.47C56.689 25.1967 56.9523 24.8133 57.1123 24.32C57.2723 23.8267 57.3523 23.2533 57.3523 22.6C57.3523 21.9467 57.2723 21.3733 57.1123 20.88C56.9523 20.3867 56.6957 20.0033 56.3423 19.73C55.9957 19.4567 55.539 19.32 54.9723 19.32C54.3657 19.32 53.8657 19.47 53.4723 19.77C53.0857 20.0633 52.799 20.46 52.6123 20.96C52.4257 21.4533 52.3323 22 52.3323 22.6C52.3323 23.2067 52.4223 23.76 52.6023 24.26C52.7823 24.7533 53.059 25.1467 53.4323 25.44C53.8057 25.7333 54.2857 25.88 54.8723 25.88ZM57.3523 28V20.6H57.0123V13.6H59.7523V28H57.3523ZM74.5523 28V21.62C74.5523 20.9067 74.3823 20.3533 74.0423 19.96C73.709 19.56 73.2457 19.36 72.6523 19.36C72.2723 19.36 71.9423 19.45 71.6623 19.63C71.3823 19.8033 71.1623 20.05 71.0023 20.37C70.849 20.6833 70.7723 21.0467 70.7723 21.46L69.6323 20.7C69.6323 19.96 69.8057 19.3067 70.1523 18.74C70.5057 18.1733 70.9757 17.7333 71.5623 17.42C72.1557 17.1 72.8123 16.94 73.5323 16.94C74.7657 16.94 75.6957 17.3067 76.3223 18.04C76.9557 18.7667 77.2723 19.72 77.2723 20.9V28H74.5523ZM61.5323 28V17.2H63.9323V20.78H64.2723V28H61.5323ZM68.0523 28V21.62C68.0523 20.9067 67.8823 20.3533 67.5423 19.96C67.209 19.56 66.7457 19.36 66.1523 19.36C65.5857 19.36 65.129 19.5567 64.7823 19.95C64.4423 20.3367 64.2723 20.84 64.2723 21.46L63.1323 20.66C63.1323 19.9533 63.309 19.32 63.6623 18.76C64.0157 18.2 64.489 17.7567 65.0823 17.43C65.6823 17.1033 66.3523 16.94 67.0923 16.94C67.939 16.94 68.6323 17.12 69.1723 17.48C69.719 17.84 70.1223 18.32 70.3823 18.92C70.6423 19.52 70.7723 20.18 70.7723 20.9V28H68.0523ZM79.0727 15.7V13.3H81.7927V15.7H79.0727ZM79.0727 28V17.2H81.7927V28H79.0727ZM91.1506 28V22.9C91.1506 22.6533 91.1373 22.34 91.1106 21.96C91.084 21.5733 91.0006 21.1867 90.8606 20.8C90.7206 20.4133 90.4906 20.09 90.1706 19.83C89.8573 19.57 89.4106 19.44 88.8306 19.44C88.5973 19.44 88.3473 19.4767 88.0806 19.55C87.814 19.6233 87.564 19.7667 87.3306 19.98C87.0973 20.1867 86.904 20.4933 86.7506 20.9C86.604 21.3067 86.5306 21.8467 86.5306 22.52L84.9706 21.78C84.9706 20.9267 85.144 20.1267 85.4906 19.38C85.8373 18.6333 86.3573 18.03 87.0506 17.57C87.7506 17.11 88.6306 16.88 89.6906 16.88C90.5373 16.88 91.2273 17.0233 91.7606 17.31C92.294 17.5967 92.7073 17.96 93.0006 18.4C93.3006 18.84 93.514 19.3 93.6406 19.78C93.7673 20.2533 93.844 20.6867 93.8706 21.08C93.8973 21.4733 93.9106 21.76 93.9106 21.94V28H91.1506ZM83.7706 28V17.2H86.1906V20.78H86.5306V28H83.7706Z" fill="#0E1422"/>
<defs>
<clipPath id="clip0_1305_793">
<rect width="15.9998" height="29.9994" fill="white" transform="translate(8 5.00031)"/>
</clipPath>
</defs>
</svg>
