<svg width="161" height="161" viewBox="0 0 161 161" fill="none" xmlns="http://www.w3.org/2000/svg">
<path d="M135.571 78.7635V42.2988C135.571 42.2941 135.567 42.2907 135.567 42.286C135.565 42.0332 135.517 41.7769 135.407 41.5313C135.37 41.4482 135.302 41.3932 135.255 41.3188C135.211 41.2472 135.169 41.1888 135.116 41.1241C134.895 40.8554 134.628 40.6413 134.31 40.5279C134.301 40.5244 134.297 40.5138 134.287 40.5107L108.461 31.78C108.458 31.7791 108.455 31.7785 108.453 31.7775L73.106 19.8279C72.7141 19.6941 72.2879 19.6941 71.896 19.8279L10.7147 40.545C10.6122 40.58 10.5375 40.6516 10.4454 40.7013C10.3922 40.7291 10.33 40.7263 10.2791 40.7594C10.2472 40.7803 10.2341 40.8188 10.2038 40.8416C10.0191 40.98 9.87066 41.146 9.74973 41.3372C9.72066 41.3832 9.67785 41.4163 9.65285 41.4644C9.52348 41.7122 9.45629 41.985 9.4466 42.2697C9.44598 42.2882 9.43316 42.3038 9.43316 42.3225L9.00004 109.327C8.99535 110.058 9.41254 110.726 10.0716 111.042L73.2047 141.271C73.4629 141.395 73.7416 141.455 74.0207 141.455L74.0219 141.455L74.0232 141.455C74.3066 141.455 74.5969 141.39 74.8691 141.254L109.404 123.903C113.873 127.39 119.476 129.489 125.571 129.489C140.102 129.489 151.925 117.666 151.925 103.134C151.925 92.1429 145.155 82.7113 135.571 78.7635ZM125.571 76.7797C113.516 76.7797 103.35 84.9257 100.226 95.9944L84.2194 103.178C83.2675 103.604 82.8413 104.722 83.2697 105.672C83.5832 106.372 84.2722 106.787 84.9913 106.787C85.2516 106.787 85.5144 106.734 85.7635 106.621L99.3485 100.524C99.2635 101.383 99.2163 102.253 99.2163 103.134C99.2163 104.959 99.4038 106.741 99.7588 108.462L87.0197 114.547C86.0794 114.996 85.6807 116.123 86.13 117.064C86.4529 117.741 87.1303 118.138 87.8357 118.138C88.1075 118.138 88.3841 118.08 88.6469 117.953L100.833 112.133C102.072 115.528 103.982 118.597 106.415 121.178L75.9272 136.496L76.3344 69.9225L131.796 45.2057V77.5538C129.796 77.0666 127.718 76.7797 125.571 76.7797ZM36.0875 54.7204L48.4847 59.8966V79.2529L42.3703 73.2097C41.8241 72.6704 41.006 72.516 40.3007 72.8179L36.0875 74.6204V54.7204ZM39.0897 51.8819L91.2925 29.9619L102.523 33.7585L50.1932 56.5182L39.0897 51.8819ZM107.849 35.5591L128.504 42.5413L74.4319 66.6391L55.0229 58.5347L107.849 35.5591ZM72.5019 23.61L85.891 28.1363L34.1991 49.84L16.6638 42.5178L72.5019 23.61ZM13.19 45.1591L32.3122 53.1438V77.4829C32.3122 78.1166 32.6304 78.7091 33.1604 79.0594C33.6882 79.4075 34.361 79.4672 34.9419 79.2185L40.6185 76.7894L49.0444 85.1188C49.4063 85.4738 49.8857 85.6629 50.3719 85.6629C50.6185 85.6629 50.865 85.6169 51.1004 85.5175C51.8032 85.2247 52.2597 84.5357 52.2597 83.775V61.4735L72.5575 69.9491L72.1519 136.578L12.7844 108.154L13.19 45.1591ZM125.571 125.714C113.121 125.714 102.991 115.584 102.991 103.134C102.991 90.6844 113.121 80.555 125.571 80.555C138.021 80.555 148.15 90.6844 148.15 103.134C148.15 115.584 138.021 125.714 125.571 125.714Z" fill="#0E1422"/>
<rect x="135.443" y="92.1222" width="3.81046" height="27.3987" rx="1.90523" transform="rotate(47.7511 135.443 92.1222)" fill="#E17862"/>
<rect x="115.825" y="94.9558" width="3.81046" height="27.3987" rx="1.90523" transform="rotate(-43.5195 115.825 94.9558)" fill="#E17862"/>
</svg>
